<?xml version="1.0" encoding="UTF-8"?> <svg xmlns="http://www.w3.org/2000/svg" xmlns:xlink="http://www.w3.org/1999/xlink" viewBox="0 0 287.65 170.38"> <defs> <style>.cls-1{fill:none;}.cls-2{fill:#fff;}.cls-3{clip-path:url(#clip-path);}</style> <clipPath id="clip-path"> <path class="cls-1" d="M107.92,154.67c7,.77,14.59-1.33,19.14-6.69,5.5-6.49,5.47-16,4.22-24.37s-3.4-17.08-1.17-25.29c4-14.68,20.19-22.33,28.36-35.16a36.47,36.47,0,0,0,4.41-28.63C153.34-1.23,103.12-3.07,77.65,15,57.08,29.67,46.85,56.23,48.57,81.4c1.64,24,16.32,47.38,35.44,62q2.25,1.72,4.58,3.28C94.45,150.61,100.93,153.9,107.92,154.67Z"></path> </clipPath> </defs> <title>Ресурс 1л</title> <g id="Слой_2" data-name="Слой 2"> <g id="Слой_1-2" data-name="Слой 1"> <path class="cls-2" d="M168.69,119.52V115.2h-17.4V96.27h1.55V113.9h13.07V96.27h1.55V113.9h2.83l-.3,5.62Z"></path> <path class="cls-2" d="M174.3,115.2V96.27h13v1.3H175.85V115.2Z"></path> <path class="cls-2" d="M191.91,115.2V96.27h1.46l8.39,11.19,8.39-11.19h1.46V115.2h-1.55V98.76l-8.27,10.9h-.12l-8.27-10.9V115.2Z"></path> <path class="cls-2" d="M226.77,115.2V96.27h1.55V105h13.37V96.27h1.55V115.2h-1.55v-8.87H228.32v8.87Z"></path> <path class="cls-2" d="M249.45,115.2V96.27H251v16.9l13.58-16.9h1.52V115.2h-1.55V98.3L251,115.2Z"></path> <path class="cls-2" d="M272.31,115.2V96.27h7.58a9.34,9.34,0,0,1,5.63,1.55,5,5,0,0,1,2.13,4.29,5.07,5.07,0,0,1-2.34,4.45,10.15,10.15,0,0,1-5.8,1.58h-5.64v7.06Zm1.55-8.35h5.73a7.91,7.91,0,0,0,4.72-1.28,4,4,0,0,0,1.79-3.42,3.87,3.87,0,0,0-1.72-3.38,8,8,0,0,0-4.61-1.19h-5.91Z"></path> <path class="cls-2" d="M151.4,130.93v-7.69H158v7.69H157V124h-4.71v6.9Z"></path> <path class="cls-2" d="M167.31,129.89a4.61,4.61,0,0,1-6.13,0,3.88,3.88,0,0,1,0-5.62,4.61,4.61,0,0,1,6.13,0,3.88,3.88,0,0,1,0,5.62Zm-5.41-.55a3.47,3.47,0,0,0,4.71,0,3.19,3.19,0,0,0,0-4.51,3.47,3.47,0,0,0-4.71,0,3.19,3.19,0,0,0,0,4.51Z"></path> <path class="cls-2" d="M170.51,130.93v-7.69h3.56a3.08,3.08,0,0,1,2.19.68,1.67,1.67,0,0,1,.54,1.25,1.83,1.83,0,0,1-1.33,1.78q1.79.49,1.79,1.88a1.76,1.76,0,0,1-.82,1.54,3.87,3.87,0,0,1-2.21.56Zm.93-4.26h2.47a2.42,2.42,0,0,0,1.4-.36,1.18,1.18,0,0,0,.53-1,1.06,1.06,0,0,0-.48-.92A2.38,2.38,0,0,0,174,124h-2.54Zm0,3.48h2.81a2.68,2.68,0,0,0,1.5-.37,1.17,1.17,0,0,0,.55-1,1.08,1.08,0,0,0-.57-1,3.27,3.27,0,0,0-1.66-.34h-2.64Z"></path> <path class="cls-2" d="M186.09,129.89a4.61,4.61,0,0,1-6.13,0,3.89,3.89,0,0,1,0-5.62,4.61,4.61,0,0,1,6.13,0,3.88,3.88,0,0,1,0,5.62Zm-5.41-.55a3.23,3.23,0,0,0,2.36.92,3.2,3.2,0,0,0,2.35-.92,3.19,3.19,0,0,0,0-4.51,3.47,3.47,0,0,0-4.71,0,3.19,3.19,0,0,0,0,4.51Z"></path> <path class="cls-2" d="M189.14,131a3.24,3.24,0,0,1-1.09-.19l.19-.7a2,2,0,0,0,.74.11,1,1,0,0,0,.88-.47,2.56,2.56,0,0,0,.43-.89,10.41,10.41,0,0,0,.29-1.66,22.92,22.92,0,0,0,.13-2.58v-1.39h5.41v7.69h-.94V124h-3.56v.83a22.94,22.94,0,0,1-.14,2.7,9.32,9.32,0,0,1-.36,1.79,3,3,0,0,1-.56,1,1.68,1.68,0,0,1-.67.5A2.28,2.28,0,0,1,189.14,131Z"></path> <path class="cls-2" d="M197.6,130.93l3.44-4.39-3.23-3.29H199l4.36,4.53v-4.53h.94v4.53l4.36-4.53h1.17l-3.23,3.29,3.44,4.39h-1.17l-2.93-3.74-1.65,1.68v2.06h-.94v-2.06l-1.66-1.68-2.92,3.74Z"></path> <path class="cls-2" d="M211.5,130.93v-7.69h.94v3h2.11a4.4,4.4,0,0,1,2.35.56,1.87,1.87,0,0,1,.9,1.7,2.15,2.15,0,0,1-.84,1.79,3.58,3.58,0,0,1-2.26.66Zm.94-.79h2.23a2.71,2.71,0,0,0,1.61-.42,1.41,1.41,0,0,0,.58-1.22,1.26,1.26,0,0,0-.59-1.12,3,3,0,0,0-1.66-.38h-2.17Z"></path> <path class="cls-2" d="M218.85,130.93l2.62-3.08a3.1,3.1,0,0,1-1.66-.76,2,2,0,0,1-.62-1.52,1.94,1.94,0,0,1,.63-1.54,3.48,3.48,0,0,1,2.44-.78h3.57v7.69h-.94V128h-2.4L220,130.93Zm3.46-3.68h2.57V124h-2.57a2.63,2.63,0,0,0-1.61.43,1.46,1.46,0,0,0,0,2.35A2.61,2.61,0,0,0,222.32,127.25Z"></path> <g class="cls-3"> <g id="RutQc8"> <path class="cls-2" d="M0,99.94c13.19-2.58,26,.11,38.8,2.78,9,1.89,18.09,3.7,27.35,4.39A26,26,0,0,0,87,99.67c3.39-3.24,6.55-6.72,10.08-9.8a66.46,66.46,0,0,1,10.14-7.63,15.65,15.65,0,0,1,16.88.39,56.54,56.54,0,0,1,9.1,7.2c4.54,4.35,8.69,9.1,13.2,13.48a53.33,53.33,0,0,0,7.65,6.09c5,3.35,10.46,3.68,16.06,1.4,5.44-2.21,10.1-5.66,14.64-9.26,5.89-4.68,11.64-9.54,17.55-14.19a42.51,42.51,0,0,1,12.86-7.15c5.53-1.84,10.71-.59,15.77,1.68.49.22.64,1.18.79,2-8-3.13-15.1-.7-21.46,3.75C203.38,92.44,197,98,190.23,103.05c-4.32,3.27-8.7,6.5-13.28,9.36-7.82,4.89-15.78,4.64-23.17-.86-5.53-4.11-10.61-8.82-16-13.15-4.74-3.83-9.35-7.89-14.46-11.16-7.29-4.66-14.75-4-21.79,1a39.66,39.66,0,0,0-4.45,3.6c-3.65,3.5-7.16,7.15-10.8,10.65-4.69,4.51-9.79,8.57-16.64,8.69A57,57,0,0,1,56.27,110c-9.48-2.13-18.85-4.8-28.26-7.24-7.79-2-15.65-3.44-23.75-2.85-.37,0-.74.06-1.1.11-.09,0-.16.12-.39.29,13.42-.36,25.21,5.15,37.31,9.43,7.09,2.51,14.21,4.82,21.71,5.87a22.36,22.36,0,0,0,18.92-5.89c3.25-2.93,6.22-6.16,9.41-9.16a110.87,110.87,0,0,1,8.68-7.75c6.4-4.87,13.38-5.48,20.74-2.21,6.2,2.76,11.54,6.82,16.91,10.88s10.52,8,15.88,11.8a52.14,52.14,0,0,0,7,4c6.4,3.19,13,3.42,19.12-.27,5.79-3.47,11.28-7.49,16.72-11.51,5.8-4.29,11.28-9,17.1-13.26,4.14-3,8.69-5.46,13.9-6.12a44.24,44.24,0,0,1,5.42,0v3c-9.18,1.19-16.15,6.62-23.13,12-6.68,5.17-13.31,10.41-20,15.51a51.87,51.87,0,0,1-6,3.67c-6.58,3.71-13.48,4.22-20.21.87-6.32-3.15-12.38-6.86-18.4-10.56-6.82-4.19-13.43-8.73-20.25-12.94a43.52,43.52,0,0,0-7.55-3.44c-7.42-2.8-14.36-1.74-20.49,3.28-3.28,2.69-6.25,5.76-9.31,8.71-2.44,2.35-4.78,4.81-7.23,7.16-6.75,6.49-14.62,8.08-23.58,5.64-8.31-2.27-16.06-5.88-23.89-9.32-7.22-3.17-14.39-6.54-22.2-8A79.11,79.11,0,0,0,0,101.05Z"></path> <path class="cls-2" d="M0,101.42c9,.54,16.82,4.45,24.66,8.37,7.38,3.69,14.69,7.53,22.15,11A61.67,61.67,0,0,0,56.43,124a17.94,17.94,0,0,0,16.72-3.51c3.88-3.11,7.31-6.77,10.92-10.22,2.49-2.39,4.85-4.92,7.42-7.22q10.06-9,22.85-4.44c7.3,2.61,14,6.46,20.64,10.29,8.76,5,17.53,10,26.44,14.78A26.56,26.56,0,0,0,176.57,127a23.17,23.17,0,0,0,11.14-4.18c6.9-4.85,13.59-10,20.39-15,4.91-3.61,9.77-7.31,14.85-10.68,2.57-1.7,5.58-2.75,8.38-4.09a4.23,4.23,0,0,1,.35.66c.48,2.65-.37,4.16-3.05,5.4-7.33,3.39-13.29,8.88-19.67,13.72-5.89,4.47-11.8,8.93-17.9,13.09-4.76,3.24-10.1,5.54-16,4.59A46.65,46.65,0,0,1,162.7,127c-9.52-4.49-18.81-9.46-28.15-14.33-7.81-4.08-15.57-8.24-24.12-10.65-7.39-2.08-14.14-.87-19.9,4.18-4.07,3.57-7.69,7.64-11.61,11.39a91.57,91.57,0,0,1-8.57,7.58c-5.07,3.75-10.73,4.54-16.85,2.7-8-2.41-15-6.78-22.19-10.83-7.4-4.17-14.86-8.24-22.46-12C6.16,103.67,3,103.33,0,102.53Z"></path> <path class="cls-2" d="M0,104c11,2.95,20,9.69,29.37,15.65,5.71,3.63,11.64,6.92,17.5,10.32a25.54,25.54,0,0,0,2.9,1.2c7.81,3.32,14.91,1.89,21.13-3.6,3.64-3.21,6.91-6.86,10.34-10.3,1.83-1.83,3.64-3.69,5.5-5.48,6.77-6.5,14.6-8.19,23.55-5.4,8.51,2.66,16.48,6.51,24.47,10.37q14.81,7.14,29.75,14a60,60,0,0,0,8.08,2.6,22.6,22.6,0,0,0,17.69-2.08c7.54-4.05,14.09-9.5,20.86-14.64,5.93-4.51,12.05-8.77,18.11-13.12a19,19,0,0,1,2.26-1.2c.66,2.61-.11,4-2.33,5.53-7.3,5-14.26,10.55-21.41,15.82-4,3-8.11,5.82-12.21,8.67-7.91,5.51-16.45,6.87-25.44,3.25q-14.9-6-29.56-12.57c-9.83-4.41-19.44-9.33-29.76-12.57-4.74-1.49-9.55-2.53-14.54-1.3-4.65,1.15-8.37,3.88-11.68,7.16s-6.09,6.65-9.35,9.74A72.74,72.74,0,0,1,65.75,134c-4.49,3-9.53,3.35-14.72,1.66A59.16,59.16,0,0,1,36,127.86c-6.26-4.28-12.41-8.72-18.68-13C11.92,111.22,6.33,108,0,106.23Z"></path> <path class="cls-2" d="M0,22.21a19.83,19.83,0,0,1,11,1.7C17.2,26.49,22.53,30.5,27.92,34.4c5,3.64,10,7.49,15.25,10.77a61.47,61.47,0,0,0,11.38,5.16c3.63,1.33,7.29.63,10.76-1a37.07,37.07,0,0,0,11.23-8.62c6-6.5,11.67-13.23,17.73-19.63a66.08,66.08,0,0,1,9.63-8.3c5.27-3.75,10.94-4,16.73-.88,6,3.22,11.22,7.57,16.33,12C143.88,30,150.7,36.12,157.78,42A50.8,50.8,0,0,0,167,47.69,14.25,14.25,0,0,0,181.83,47,65.29,65.29,0,0,0,191,39.34c2.73-2.57,5.13-5.5,7.76-8.19,6-6.14,13.24-8,21.52-6.1,3.3.76,6.56,1.68,9.86,2.45,1.49.35,1.91,1.11,1.38,2.49-3-.65-6-1.35-9-1.92A22.42,22.42,0,0,0,203,33.31c-3.85,3.27-7.48,6.81-11.29,10.13-4.15,3.62-8.69,6.47-14.36,7.05a21.22,21.22,0,0,1-11.27-2.26c-7.31-3.4-13.73-8.21-20.29-12.82-7.36-5.17-14.75-10.3-22.28-15.22a39.22,39.22,0,0,0-8.22-3.72,15.57,15.57,0,0,0-14.15,1.77c-4.77,3-8.43,7.18-12.05,11.39-4,4.68-7.91,9.47-12,14a43.86,43.86,0,0,1-6.52,5.71A16.84,16.84,0,0,1,54.8,52a62.12,62.12,0,0,1-15.51-7.7c-6.4-4.18-12.7-8.51-19.14-12.62-4.73-3-9.62-5.8-15.21-7-1.62-.34-3.29-.42-4.94-.62Z"></path> <path class="cls-2" d="M0,97.35c1.82-.25,3.64-.57,5.47-.73,10.92-1,21.8-.28,32.7.53s21.9,1.41,32.86,2a24.42,24.42,0,0,0,18.44-6.68c4-3.62,7.65-7.54,11.71-11A54.76,54.76,0,0,1,111,74.33c7-3.74,13.27-2.78,18.94,2.83,2.91,2.88,5.27,6.34,7.79,9.59,3.32,4.28,6.35,8.81,9.89,12.89s8,6.44,13.47,5.32a27.09,27.09,0,0,0,9.71-3.78c6.34-4.35,12.26-9.3,18.36-14,4.2-3.23,8.3-6.61,12.63-9.65,7.64-5.36,15.78-6.19,24.31-2.12a43.55,43.55,0,0,0,4.23,1.86c1.35.47,1.64,1.31,1.25,2.7l-5.06-2.12c-6.84-2.86-13.61-2.68-19.83,1.35-5.57,3.61-10.81,7.73-16.1,11.75-5,3.81-9.77,7.92-14.84,11.63a41.93,41.93,0,0,1-8.22,4.54c-5.94,2.55-11.74,1.94-16.61-2.37a130.35,130.35,0,0,1-10.43-11c-2.79-3.12-5.29-6.51-8.06-9.65a38.62,38.62,0,0,0-4.74-4.4C122,75.2,115.83,74.66,109.54,78a49,49,0,0,0-9.11,6.55C96.49,88,92.88,91.82,89.08,95.43c-5.59,5.31-12.18,8.17-20,7.48-9.45-.83-18.91-1.65-28.32-2.83C30.56,98.81,20.36,97.32,10,97.82c-3.36.16-6.68.9-10,1.38Z"></path> <path class="cls-2" d="M124,0c10.54,7.67,16.9,18.92,24.81,28.85a108.45,108.45,0,0,0,11.73,13c7,6.36,13.86,5.87,20.44-1a89,89,0,0,0,6.56-8.46c1.47-2,2.83-4,4.25-6C197,19,204,16.23,212.77,18.26c5.93,1.38,11.78,3.09,17.7,4.56,1.69.42,1.22,1.5,1.16,2.62-4.38-1.14-8.69-2.3-13-3.37-1.73-.43-3.5-.7-5.27-1-7.3-1.06-13.22,1.54-17.9,7-3.16,3.7-6.1,7.59-9.22,11.33a23.79,23.79,0,0,1-9.37,7.33c-3.75,1.48-7.56,1.68-11-.51a52.63,52.63,0,0,1-9.45-7c-6.2-6.25-11.91-13-18-19.34a133.07,133.07,0,0,0-13-12.25c-6.77-5.34-11.82-5.45-18.92-.48A83.87,83.87,0,0,0,94.69,17.39c-6.2,6.35-11.92,13.18-18.16,19.49A79.78,79.78,0,0,1,65.41,46c-5.18,3.62-10.78,3.61-16.51,1C43,44.28,38.07,40.17,33,36.2s-10.16-8-15.39-11.81A23.1,23.1,0,0,0,5.89,19.82,52.61,52.61,0,0,0,0,20V18.14a20.17,20.17,0,0,1,17.74,3.31c4.44,3.19,8.53,6.87,12.79,10.32,4.78,3.87,9.39,8,14.43,11.5,6.59,4.57,13.48,4.52,20.16-.19a37.77,37.77,0,0,0,4.05-2.9c4-3.73,8-7.46,11.88-11.37C90.92,18.8,99.36,7.28,111.79,0Z"></path> <path class="cls-2" d="M0,26.28C9.8,27.72,17.88,33,26.16,37.9,32.85,41.84,39.41,46,46.23,49.71a58.83,58.83,0,0,0,11.14,4.38,16.5,16.5,0,0,0,17.25-4.22C78,46.54,80.94,42.8,84,39.2c3.25-3.78,6.3-7.75,9.72-11.39,5.52-5.88,12.27-7.35,20-5s14.5,6.12,21.42,9.93c9.55,5.25,19,10.64,28.79,15.51a40.25,40.25,0,0,0,12,3.43c5.76.85,11.15-1,15.92-4.21,3.76-2.56,7.3-5.47,10.91-8.25,4.22-3.25,8.54-6.28,13.86-7.52,5.08-1.18,10-.46,15,.81,0,.44.09.8.11,1.16s0,.61,0,1.07a9,9,0,0,1-1.42,0c-7.37-1.23-14.08.58-20.29,4.48-3.71,2.32-7.29,4.84-10.93,7.28-5.4,3.62-11.13,6.37-17.77,6.64a38.93,38.93,0,0,1-16.61-3.06c-10.86-4.52-21.59-9.33-32.37-14-7.63-3.31-15.26-6.59-23.52-8.11-7.21-1.33-13.37.32-18.13,6-2.72,3.26-5.17,6.75-7.79,10.09-2,2.57-4,5.18-6.22,7.56-4.94,5.3-11.06,6.23-17.83,4.47a75.78,75.78,0,0,1-17.17-7.19C32.2,43.77,22.92,38.4,13.36,33.55,9.19,31.44,4.47,30.4,0,28.87Z"></path> <path class="cls-2" d="M0,31.46c9.42,2.35,17.85,7,26.42,11.32,9,4.53,17.89,9.1,27,13.22A46.8,46.8,0,0,0,65,59a13,13,0,0,0,12.09-4.16,68.17,68.17,0,0,0,5.22-6.69c1.47-2.05,2.8-4.21,4.15-6.34,4.39-6.91,10.67-9.37,18.69-8.33,9.49,1.23,18.43,4.34,27.4,7.41,11.65,4,23.25,8.11,35,11.78,7.86,2.46,16,3.3,24,.54,4.21-1.46,8.17-3.7,12.17-5.72,4.94-2.5,9.72-5.34,14.74-7.64a25.25,25.25,0,0,1,13.11-1.94V41c-9.23.08-17,4.36-24.79,8.41-5.32,2.74-10.68,5.39-16.63,6.49a48.35,48.35,0,0,1-21.09-1c-13.46-3.48-26.81-7.43-40.26-10.93-7.73-2-15.56-3.72-23.42-5.19a39.68,39.68,0,0,0-9.77-.22c-3.6.23-6.33,2.35-8.41,5.16-1.57,2.12-2.87,4.45-4.3,6.67-1.23,1.92-2.38,3.89-3.74,5.72-3.12,4.2-7.41,5.63-12.52,5.18A46.52,46.52,0,0,1,51.22,57.1c-9.78-4.51-19.37-9.44-29.17-13.93-6.65-3-13.5-5.66-20.27-8.44A8.25,8.25,0,0,0,0,34.42Z"></path> <path class="cls-2" d="M0,37.39a82.25,82.25,0,0,1,8.91,2.89c11.23,5,22.37,10.3,33.56,15.44,7,3.22,14.06,6.3,21.69,7.74a37.2,37.2,0,0,0,4,.5c5.75.44,10.07-1.83,12.85-6.9,1.33-2.43,2.55-4.92,3.9-7.34,2.57-4.62,6.51-6.83,11.83-6.82,8.64,0,17,1.72,25.39,3.61,14.29,3.23,28.53,6.72,42.83,9.89,7.83,1.74,15.75,3,23.84,2.13a51.55,51.55,0,0,0,15-4.35c6.33-2.73,12.63-5.54,19.05-8,2.7-1,5.69-1.34,8.72-2v3.4c-9.29,1-17.55,5-25.8,8.81-11.82,5.45-23.9,6.13-36.47,3.46q-26.2-5.56-52.5-10.69A188.88,188.88,0,0,0,98,46.55c-7.37-.67-11.35,1.88-14.49,8.61-.6,1.28-1.17,2.58-1.77,3.86-2.59,5.56-7,8-13.07,7.75a46,46,0,0,1-16-4.11C41.69,57.92,30.89,52.81,20,48c-5.8-2.55-11.74-4.77-17.63-7.11A15.86,15.86,0,0,0,0,40.35Q0,38.87,0,37.39Z"></path> <path class="cls-2" d="M0,92.17a45.83,45.83,0,0,1,5.47-.71c9.55-.13,19.1-.36,28.65-.18,12.45.23,24.9.73,37.35,1.27a26.19,26.19,0,0,0,19.84-7.44c4.54-4.26,9-8.66,13.55-12.86a25,25,0,0,1,10.21-5.79c5.75-1.6,11-.65,15.14,3.75a86.43,86.43,0,0,1,7.54,10c2.49,3.59,4.6,7.45,7.18,11,2.7,3.7,6.08,6.65,10.86,7.42,3.68.59,7.1-.36,10.4-1.86,5.67-2.58,10.48-6.45,15.25-10.36S191,78.26,196,74.45a65.62,65.62,0,0,1,9.28-5.68,18.59,18.59,0,0,1,15.58-.89c2.94,1.08,5.78,2.45,8.72,3.53,1.83.67,2.56,1.73,1.91,3.75-1.77-.8-3.58-1.52-5.32-2.41-9.76-5-19-3.89-27.52,2.71-6,4.67-11.8,9.72-17.84,14.39a126.77,126.77,0,0,1-13,9.06,23.7,23.7,0,0,1-8.52,2.76c-5.59.81-10-1.9-13.31-6.12-2.62-3.32-4.78-7-7.13-10.55-2-3.08-3.86-6.33-6.13-9.23-6-7.69-13.82-9.28-22.24-4.3a67.75,67.75,0,0,0-9.74,7.58c-4,3.49-7.66,7.33-11.67,10.8a22.84,22.84,0,0,1-16.19,5.66c-13.07-.44-26.13-1-39.2-1.26-9.3-.18-18.61,0-27.91.17A34.43,34.43,0,0,0,0,95.5Q0,93.83,0,92.17Z"></path> <path class="cls-2" d="M0,109.2c2.14.71,4.51,1.06,6.38,2.21,6.09,3.72,12.06,7.66,18,11.66,5.15,3.49,10.1,7.29,15.26,10.76a52,52,0,0,0,7.5,4c8.36,3.81,16,2.5,22.77-3.61,3.15-2.85,6-6,9-9.07,2.38-2.41,4.71-4.89,7.2-7.18,6.26-5.75,13.49-7.2,21.63-4.84,9.74,2.83,18.91,7,28.16,11.1q15.89,7,31.93,13.65a59.22,59.22,0,0,0,7.79,2.3,20.4,20.4,0,0,0,16.57-2.37c6.55-4.14,12.86-8.67,19.17-13.19s12.3-9.08,18.45-13.61a17.22,17.22,0,0,1,1.79-1c.43,1.65,0,2.53-1.39,3.54-6.55,4.6-12.9,9.5-19.4,14.18-6,4.32-12,8.68-18.19,12.66a20.31,20.31,0,0,1-14.68,3.22,42,42,0,0,1-8.58-2.14c-9.3-3.77-18.55-7.65-27.71-11.75-10.06-4.5-19.89-9.54-30.44-12.87-4.91-1.55-9.87-2.74-15.06-1.39a25.1,25.1,0,0,0-11.23,6.87c-3.17,3.11-6.08,6.48-9.23,9.6a75.71,75.71,0,0,1-8,7.14A17.91,17.91,0,0,1,50,141.53a63.19,63.19,0,0,1-14.44-7.78c-7.14-5-14.18-10.06-21.37-14.94A43.51,43.51,0,0,0,0,112.16Z"></path> <path class="cls-2" d="M0,148.06c5.88-2.72,12-2.44,18.12-1.28,9.73,1.84,18.87,5.58,28.14,8.88,7.36,2.63,14.73,5.19,22.46,6.65,8.31,1.57,15.7-.08,22.06-5.66,4.4-3.86,8.54-8,13-11.82a56.22,56.22,0,0,1,9-6.42c6-3.36,12.37-3.26,18,.72a93.53,93.53,0,0,1,11.29,10c4.61,4.53,8.8,9.51,13.53,13.91,4.57,4.25,10,6.77,16.56,5.37a23.18,23.18,0,0,0,11-6.14c2.74-2.57,5.27-5.36,7.91-8,2.08-2.11,4.14-4.23,6.29-6.26,6.37-6.06,13.85-7.7,22.23-5.32,3.13.89,6.23,1.92,9.31,3s3,1.12,2.67,4.64c-1.87-.67-3.68-1.41-5.54-2-3.41-1-6.82-2.1-10.29-2.91a19.74,19.74,0,0,0-18.81,5.08c-3.11,2.89-5.87,6.15-8.95,9.09-3.33,3.18-6.78,6.25-10.34,9.17a6.7,6.7,0,0,1-3.76,1.08c-3.39.14-6.79-.08-10.17.09a7.51,7.51,0,0,1-5.91-2c-3.4-3.3-6.78-6.62-10-10.12s-6.17-7.38-9.34-11a33.93,33.93,0,0,0-4.35-4c-6.17-4.92-12.84-5.56-19.88-2-5.66,2.82-10.06,7.27-14.63,11.51-2.12,2-4.3,3.89-6.43,5.86-7.46,6.9-16.2,9-25.88,6.34-10.07-2.81-20-6.13-30-9.18-5.3-1.61-10.59-3.26-15.95-4.65C14.23,148.78,7,148.5,0,151.39Z"></path> <path class="cls-2" d="M202.82,66.27c.63-.18,1.28-.31,1.88-.55,2.4-1,4.74-2.06,7.18-2.88,4.32-1.45,8.53-.45,12.66,1,1.8.62,3.52,1.49,5.33,2.08s2.22,1.67,1.66,3.41c-2.43-1-4.88-2-7.29-3.08-7.28-3.21-14.43-2.8-21,1.58C196.94,72,191,76.88,184.88,81.42c-4.6,3.41-9.17,6.86-13.9,10.08a29.66,29.66,0,0,1-6.16,2.9c-5.65,2.17-10.94,1.23-15.28-2.89a112.51,112.51,0,0,1-9.14-10.37c-3-3.62-5.52-7.59-8.64-11.06-7.4-8.21-15.42-9.16-24.48-2.82-3.45,2.42-6.43,5.54-9.54,8.42-2.44,2.26-4.73,4.69-7.15,7A25.27,25.27,0,0,1,71,89.75c-12.55-.73-25.1-1.51-37.65-2.22-10.15-.58-20.31-1.23-30.46.19L0,88.1q0-2.22,0-4.44c3.61-.35,7.22-.89,10.83-1,11.76-.41,23.35,1.45,35,2.65,8.76.9,17.56,1.52,26.36,2A22.26,22.26,0,0,0,89.05,81c2.85-2.64,5.43-5.56,8.27-8.21,3.06-2.85,6-5.89,9.47-8.22,7.07-4.79,14.22-4.56,20.87.78A108.84,108.84,0,0,1,138.59,76.1c4.26,4.54,8.18,9.4,13.37,13,4.7,3.25,9.73,4.08,15.08,2a35.27,35.27,0,0,0,7.13-3.43c5.14-3.5,10.09-7.28,15.09-11,.32-.24.44-.76.65-1.16l.09-.39,8.39-5.82,3.43-2.69Z"></path> <path class="cls-2" d="M0,43.68c12.71,3.72,24.49,9.68,36.52,15,8.88,4,17.71,8.07,27.26,10.27a25.35,25.35,0,0,0,3.46.6c7.8.68,11.65-1.49,15.15-8.47.8-1.6,1.56-3.21,2.39-4.79,2.51-4.79,6.57-7.35,11.87-7a149.72,149.72,0,0,1,19.78,2.4C132.66,55,148.78,58.9,165,62.3a148.4,148.4,0,0,0,16.65,2.31c8.36.78,16-2,23.58-5.16,6.74-2.84,13.55-5.52,20.4-8.11a37.29,37.29,0,0,1,6-1.2l.13,2c-2,.33-4,.57-5.88,1-6,1.29-11.43,4.14-17,6.62a175.59,175.59,0,0,1-17.09,6.91c-6.85,2.22-14,1.58-20.87,0-14.78-3.3-29.42-7.18-44.18-10.58-7.67-1.77-15.45-3.1-23.2-4.46a30.8,30.8,0,0,0-6.64-.19,12.36,12.36,0,0,0-10.19,5.81c-1.18,1.79-2.18,3.72-3.2,5.61-4.56,8.46-9.63,10.77-19.06,8.67s-18.1-6-26.92-9.62C26.63,57.48,15.7,53.14,4.78,48.79,3.24,48.18,1.6,47.84,0,47.38Z"></path> <path class="cls-2" d="M202.65,140.61a8.31,8.31,0,0,0,1.61-.82c7.21-5.89,15.18-6.41,23.69-3.45,4,1.4,4,1.34,3.65,5.87-.66-.23-1.25-.46-1.86-.65-3.48-1-6.91-2.27-10.44-3.05-6.87-1.53-13,.39-18.22,4.94-3.76,3.27-7.18,6.94-10.84,10.33a105.79,105.79,0,0,1-9.31,8.15c-7,5.13-14.52,5.47-21.68.47a138.28,138.28,0,0,1-12.73-10.67c-4.32-3.86-8.41-8-12.7-11.87a27.38,27.38,0,0,0-4.55-3.16c-6.91-4.08-13.93-4.16-20.56.37-4,2.73-7.53,6.14-11.19,9.34-2.46,2.15-4.78,4.46-7.15,6.71-7.21,6.83-15.63,8.53-25.18,6.26-9.28-2.21-18-5.91-26.85-9.32-7.88-3-15.71-6.2-24.15-7.39C9.36,142,4.58,142,0,144v-4.07a7.34,7.34,0,0,1,.84-.37,25.62,25.62,0,0,1,15.5.27c8.07,2.61,16,5.66,23.88,8.79,7.72,3.06,15.28,6.53,23.39,8.55,9.13,2.28,17.22.65,24.16-5.87,2.7-2.53,5.27-5.2,8-7.64a125,125,0,0,1,10.93-9.06,16.07,16.07,0,0,1,15-2.27,45.57,45.57,0,0,1,10.28,5.3c3.9,2.68,7.35,6,11.06,8.95,5.59,4.44,11,9.17,16.91,13.13,7.69,5.14,15.73,4.72,23-1,4.75-3.7,9-8,13.48-12.08.2-.18.26-.53.38-.81l1.53-1.52Z"></path> <path class="cls-2" d="M202.82,66.27l-1,.34a35.12,35.12,0,0,0-4.1,1.83c-10.81,6.53-22.24,8.07-34.26,4.13-9.18-3-18.3-6.19-27.4-9.43S118,56.52,108.49,55c-8.56-1.4-15.46.92-20.12,8.62C87,65.85,85.47,68,83.9,70.16c-3.59,4.84-8.41,7.26-14.43,6.48a69.85,69.85,0,0,1-12.64-2.55c-11-3.57-21.88-7.52-32.81-11.31C16.16,60.06,8.3,57.37,0,56.26V51.82c6.7,2,13.51,3.8,20.08,6.19C31.3,62.09,42.31,66.75,53.53,70.8a88.31,88.31,0,0,0,14.84,3.66c6,1,10.89-1.24,14.35-6.31A46.15,46.15,0,0,0,85.93,63c4.15-8.23,10.92-10.7,19.69-9.53C116,54.83,125.9,58,135.88,60.88c10.92,3.19,21.85,6.39,32.88,9.19a41.28,41.28,0,0,0,30.3-3.71q8.66-4.57,17.49-8.8a35.48,35.48,0,0,1,13.71-3.45c1,0,1.82,0,1.24,1.51a31.49,31.49,0,0,0-13.67,2.2,13.62,13.62,0,0,0-2.1,1.29l0,0-1.42.54-5.92,3.11c-1.33.68-2.7,1.31-4,2.07A9.92,9.92,0,0,0,202.82,66.27Z"></path> <path class="cls-2" d="M0,115.49c7.42,1.71,13.75,5.65,20,9.78s12.12,8.51,18.42,12.38a91.52,91.52,0,0,0,13.54,6.68,16.17,16.17,0,0,0,16.16-2.14,100,100,0,0,0,9.94-8.8c2.94-2.81,5.63-5.88,8.53-8.74,6.83-6.74,14.93-8.84,24-5.53,7.85,2.87,15.56,6.17,23.19,9.58,10.68,4.77,21.19,9.91,31.86,14.71a53.8,53.8,0,0,0,9,2.76,22,22,0,0,0,15.78-2c7.2-3.66,13.37-8.79,19.7-13.71,5.74-4.46,11.6-8.77,17.45-13.09a36.48,36.48,0,0,1,4-2.25l.5.35c-.36.69-.55,1.77-1.1,2-7.1,3.12-12.94,8.07-18.94,12.81-5.8,4.59-11.61,9.17-17.57,13.55a29.94,29.94,0,0,1-11.86,5.4,24,24,0,0,1-14.29-1.83c-8.37-3.58-16.64-7.42-24.79-11.46-9.49-4.7-18.66-10.06-28.71-13.56-4.7-1.64-9.49-2.79-14.5-1.89a21,21,0,0,0-10.66,5.63c-3.82,3.58-7.34,7.48-11.12,11.1a77.79,77.79,0,0,1-8.23,7.12c-5,3.61-10.72,4.6-16.51,2.35a101.37,101.37,0,0,1-14.47-6.87c-7.18-4.2-14-8.94-21.1-13.34-5.62-3.5-11.52-6.39-18.11-7.62Z"></path> <path class="cls-2" d="M0,72.92c12.68-1.47,24.86,1.57,37.07,4.24,10.1,2.21,20.18,4.48,30.49,5.61,8.46.93,15.59-1.2,21.26-7.72,2.71-3.12,5.4-6.25,8.2-9.28a22.77,22.77,0,0,1,9.5-6.52A19.25,19.25,0,0,1,122.24,61c5.7,3.14,11.1,6.83,16.59,10.34,5.71,3.64,11.26,7.53,17.09,10.95,7,4.11,14.33,4,21.56.38,2.91-1.47,5.68-3.2,8.52-4.8.57-.32,1.19-.58,1.78-.86-6.64,5.25-13.41,10.25-22.1,11.61a14.9,14.9,0,0,1-10.76-2.47c-4.69-3.14-9.15-6.65-13.56-10.19-3.85-3.08-7.4-6.52-11.26-9.59A42.59,42.59,0,0,0,123,61.8c-6.66-3.39-13.28-2.91-19.12,1.62-3.91,3-7.2,6.86-10.76,10.35-.7.69-1.35,1.44-2,2.18C84.93,83,77.29,86.13,68,84.85c-11.16-1.53-22.32-3.06-33.46-4.74C26.05,78.84,17.6,77.37,9,77.65c-3,.1-6,.54-9,.82Z"></path> <path class="cls-2" d="M0,61.82c3.77.43,7.67.38,11.29,1.37C22.56,66.27,33.68,69.89,44.94,73c7.57,2.11,15.23,4,22.94,5.55,7,1.4,13-.92,17.54-6.62,1.84-2.32,3.66-4.65,5.34-7.08,5.74-8.26,13.48-10.49,23-8,9,2.33,17.3,6.36,25.77,10,8,3.45,16,6.82,24.11,9.75s16.52,2,24.34-2c2.9-1.49,5.7-3.17,8.57-4.72a11.37,11.37,0,0,1,1.83-.63L190,75.12a12.71,12.71,0,0,0-1.85.61c-2,1-4,2.16-6.06,3.15-7.15,3.47-14.55,4-21.8.75-7.55-3.43-14.91-7.32-22.23-11.23-6.9-3.68-13.62-7.67-21.14-10-8.86-2.79-16.41-1-22.47,6.18C92.38,67,90.33,69.46,88.37,72,83.21,78.7,76.57,81.86,68,80.66a61.83,61.83,0,0,1-6.21-.93c-11.77-2.91-23.5-5.93-35.26-8.86C19.17,69,11.78,67.06,4.06,67,2.71,67,1.35,67,0,67Z"></path> <path class="cls-2" d="M198.42,144.32a8.44,8.44,0,0,0-1.94.72c-3.1,2.12-6.06,4.45-9.23,6.45-6.31,4-13.14,4.74-20,1.85a161.58,161.58,0,0,1-16.82-8.4c-7.92-4.5-15.51-9.6-23.48-14a71.92,71.92,0,0,0-13.47-5.44,17.45,17.45,0,0,0-16.12,3,115.3,115.3,0,0,0-9.41,8.3c-3.33,3.11-6.43,6.48-9.82,9.51C72,151.84,64.77,153.42,57,150.66a134.46,134.46,0,0,1-15.7-6.84c-8.46-4.28-16.68-9-25.12-13.33A32.52,32.52,0,0,0,0,126.59v-3.7a21.42,21.42,0,0,1,10.68,2.54c7.12,3.63,14.13,7.5,21.07,11.47,6.73,3.85,13.26,8,20.51,10.94,9.38,3.76,17.61,2.23,24.82-4.79,3.31-3.23,6.48-6.6,9.76-9.85,1.75-1.74,3.55-3.43,5.41-5,6.35-5.51,13.53-6.9,21.55-4.35,7.15,2.28,13.72,5.74,20.28,9.29,9.85,5.34,19.67,10.73,29.66,15.81a27.6,27.6,0,0,0,15.89,3.27,23.68,23.68,0,0,0,11.06-4.36c5.3-3.8,10.4-7.89,15.57-11.87,1.31-1,2.59-2.07,3.88-3.11l.41.35-4,3.69-3.9,3.73Z"></path> <path class="cls-2" d="M0,131c6.47-1.08,12.55.56,18.3,3.2,8.67,4,17.17,8.33,25.75,12.51,6.21,3,12.48,5.86,19.39,7a19.16,19.16,0,0,0,15.51-3.82c3.61-2.86,6.86-6.18,10.26-9.3s6.37-6.2,9.82-9c6.14-4.92,13.14-6,20.34-2.88A107.76,107.76,0,0,1,134,136.51c6.78,4.25,13.17,9.14,20,13.36a86.87,86.87,0,0,0,13.52,6.71,17.82,17.82,0,0,0,16-1.39c3.5-2,6.69-4.59,10-6.89.54-.37,1.13-.66,1.69-1-4.22,3.38-8.23,7.07-12.71,10.05-5.74,3.82-12,3.9-18.37,1.2s-11.49-6.64-16.83-10.62c-6.08-4.52-12.11-9.11-18.34-13.41a38.5,38.5,0,0,0-8.09-4,17.91,17.91,0,0,0-17.43,2.05A88.74,88.74,0,0,0,94.54,140c-3.42,3.11-6.61,6.47-10,9.6-6.64,6.14-14.37,7.58-23,5.3-8.46-2.23-16.23-6.08-24.1-9.74S22,137.74,13.65,135.67C9.14,134.56,4.57,134,0,135.48Z"></path> <path class="cls-2" d="M0,154.35c1.29-.37,2.58-.75,3.88-1.09,6.61-1.75,13.17-.89,19.52,1,9.62,2.84,19.12,6.09,28.66,9.17,6.92,2.23,13.85,4.38,21.14,5.11a22.42,22.42,0,0,0,16.38-4.4c4.35-3.33,8.33-7.13,12.54-10.63a112.06,112.06,0,0,1,10.7-8.48c8.7-5.59,16.5-4.71,24,2.39a68.3,68.3,0,0,1,5.62,6.12c4.47,5.4,8.86,10.87,13.18,16.19-1.59.4-1.66.44-2.88-1-3.32-3.89-6.49-7.92-9.91-11.72a88.22,88.22,0,0,0-8.36-8.34c-5.54-4.71-11.78-5.14-18.34-2.26-4.7,2.06-8.58,5.3-12.35,8.67-3.49,3.12-7,6.27-10.45,9.4-.32.29-.68.53-1,.81-3.86,3.37-8.14,5.39-13.47,4.65a26.41,26.41,0,0,0-5.91,0c-7.86.7-15.21-1.14-22.53-3.85q-13.59-5-27.45-9.27c-6-1.82-12.17-2.73-18.43-1.33-1.55.35-3,1-4.56,1.47Q0,155.65,0,154.35Z"></path> <path class="cls-2" d="M99.2,0C97.08,2.22,95,4.47,92.83,6.66c-7.39,7.52-14.67,15.16-22.28,22.45a57.59,57.59,0,0,1-10.18,7.3,13.37,13.37,0,0,1-13.79.26,44.23,44.23,0,0,1-8.73-6.11C34,27.08,30.63,23.13,27,19.47a84.62,84.62,0,0,0-6.31-5.7C14.44,8.72,7.53,7.61,0,10.36V7C6.64,4.5,13,4.93,18.73,9.26c3.81,2.89,7.29,6.23,10.83,9.47,4,3.69,7.88,7.62,12,11.17a28.12,28.12,0,0,0,6.67,3.87,12.55,12.55,0,0,0,11.92-.36C64,31.21,67.89,29,70.94,26,79.47,17.55,87.59,8.69,95.87,0Z"></path> <path class="cls-2" d="M135.11,0c3.58,6.11,7.06,12.29,10.76,18.32,3.54,5.77,7.25,11.44,11,17.06a17,17,0,0,0,3.53,3.51c4.63,3.75,10.06,4,14.79.34A31.08,31.08,0,0,0,180.94,33a86.07,86.07,0,0,0,4.44-7.46c1.25-2.12,2.46-4.28,3.81-6.33,3.9-5.91,9.19-8.84,16.48-7.84,8.89,1.22,17.41,3.8,26,6.36,0,.61,0,1.09,0,1.58,0,.3,0,.6-.08,1.1-2.5-.73-4.87-1.53-7.3-2.11-5.45-1.3-10.9-2.61-16.39-3.68-7-1.36-12.67,1-16.84,6.7-2.17,3-4,6.21-6.06,9.29a84.89,84.89,0,0,1-5.19,7.41A19.91,19.91,0,0,1,175,42.27c-4.41,2.69-8.86,2.64-13.14-.49A41.49,41.49,0,0,1,152,30.85c-4.49-6.78-8.7-13.75-13.17-20.55C136.5,6.77,133.89,3.43,131.41,0Z"></path> <path class="cls-2" d="M92.54,0C86.79,6.35,81.21,12.87,75.21,19A82,82,0,0,1,64,28.21a14.61,14.61,0,0,1-17.35.39,129.56,129.56,0,0,1-12.7-9.78c-4.77-4-9.24-8.33-14-12.31A21.07,21.07,0,0,0,9.43,1.71C6.15,1.23,3.08,2,0,3V0H15.55c2.9,2.07,5.91,4,8.67,6.25,4.39,3.58,8.6,7.39,12.92,11.06A54.4,54.4,0,0,0,49.7,25.7c5.18,2.36,10.15,2.19,15-.86a48.43,48.43,0,0,0,5.72-4C77.51,14.64,83.33,7.29,89.21,0Z"></path> <path class="cls-2" d="M138.81,0c5.45,8.79,10.85,17.61,16.4,26.34a27.13,27.13,0,0,0,4.4,5c5.7,5.37,12.76,5.39,18.19-.29,2.65-2.77,4.68-6.16,6.83-9.37,1.71-2.56,3.15-5.29,4.73-7.93C194,5.9,200.82,2.94,209.62,5c7,1.64,13.93,3.62,20.9,5.43a1.36,1.36,0,0,1,1.22,1.68,21.07,21.07,0,0,0,0,2.3c-4.7-1.31-9.21-2.74-13.82-3.79s-9.28-1.91-14-2.5c-5.64-.71-10.18,1.63-13.42,6.16-2.25,3.14-4.05,6.61-6.12,9.89-1.93,3.07-3.8,6.2-6,9.09a13.34,13.34,0,0,1-8.12,5.13c-3.59.74-7.06.12-9.66-2.44a52.12,52.12,0,0,1-8-9.37c-4.7-7.59-8.9-15.48-13.32-23.24-.64-1.12-1.33-2.22-2-3.33Z"></path> <path class="cls-2" d="M106.23,0C102.15,3.91,98,7.72,94,11.75c-6.35,6.46-12.5,13.12-18.82,19.6A61.32,61.32,0,0,1,62,41.72c-5.39,3.12-10.84,3.3-16.12.12a63.56,63.56,0,0,1-9.32-6.9c-4.61-4.08-8.9-8.53-13.42-12.71a40.91,40.91,0,0,0-5.46-4.09A19.68,19.68,0,0,0,0,15.92V13.33c8.57-2.83,16-.74,22.52,5.24,2.94,2.71,5.68,5.64,8.56,8.42,3.4,3.3,6.79,6.61,10.32,9.78a20.39,20.39,0,0,0,4.36,2.75,15.11,15.11,0,0,0,15.16-.2c6.1-3.41,11.17-8.08,16-13,7.91-8,15.68-16,23.5-24.07.71-.73,1.39-1.51,2.08-2.26Z"></path> <path class="cls-2" d="M227.28,0a5.84,5.84,0,0,0,.78.43C232,1.91,232,1.9,231.6,6.3c-2.95-.92-5.83-2-8.78-2.7-4.35-1.11-8.72-2.18-13.13-3-6.65-1.22-12.24.88-16.34,6.28-2.45,3.23-4.52,6.76-6.81,10.11-2,2.9-3.91,5.84-6.08,8.59a18,18,0,0,1-4.15,3.64c-4.6,3.07-9.35,3.07-13.78-.19a28.54,28.54,0,0,1-6.28-5.95c-5.48-7.58-10.67-15.38-16-23.09h1.48c2.73,3.73,5.4,7.51,8.21,11.18,3.79,4.95,7.64,9.86,12.77,13.55,5.41,3.89,10.54,3.9,15.83-.18,6.09-4.69,9.73-11.34,13.64-17.75l1.74-2.14L198.4,0Z"></path> <path class="cls-2" d="M86.25,0c-4.76,6.29-9.51,12.61-15.63,17.69a39.16,39.16,0,0,1-4.54,3.17C61.86,23.46,57.3,24.1,52.83,22A83.38,83.38,0,0,1,40.09,14.6C33.7,10,27.66,4.89,21.47,0H27c3,2.33,6,4.69,9.07,7,5.49,4.08,11,8,17.45,10.65A15.6,15.6,0,0,0,70,15.41C75.58,11.16,79.77,5.72,83.66,0Z"></path> <path class="cls-2" d="M81.43,0a43.92,43.92,0,0,1-9.75,11.25,14.69,14.69,0,0,1-14.91,2.52A65.2,65.2,0,0,1,42,6.16c-3-2-5.83-4.1-8.73-6.16H40A71.3,71.3,0,0,0,58.85,9.82c4.28,1.38,8.46,1.46,12.4-1.1A27.47,27.47,0,0,0,79.58,0Z"></path> <path class="cls-2" d="M192.21,6.8c-1,1.3-2,2.65-3.05,3.9A89,89,0,0,1,181.81,19c-6.2,5.61-12.1,5.81-18.91,1-5.37-3.83-9.63-8.8-13.89-13.76-1.72-2-3.35-4.1-5-6.15h2.59c4.69,4.53,9.36,9.08,14.11,13.56a23.35,23.35,0,0,0,3.75,2.68c6.94,4.31,12.23,4.07,18.67-1C188.43,11,192.28,5.46,196.18,0h.74l-3,4.65Z"></path> <path class="cls-2" d="M195.44,0c-3.12,3.31-6.1,6.77-9.41,9.88a23.55,23.55,0,0,1-6.05,3.8,12.83,12.83,0,0,1-10.74.15,48.84,48.84,0,0,1-12.53-8.06c-2.21-1.84-4.29-3.84-6.43-5.77h4.44c.07.16.1.37.22.46,4.7,3.59,9.49,7,15.05,9.23a13.68,13.68,0,0,0,7.77,1C184.51,9.33,189.39,5.15,193.59,0Z"></path> <path class="cls-2" d="M0,158.8c6.76-2.81,13.66-2.14,20.31-.08,9.16,2.84,18.12,6.33,27.16,9.55a23.61,23.61,0,0,1,3.36,1.47c-3.5,0-6.9.46-10.37-1.09-8-3.59-16.15-7.06-24.82-8.9-5.25-1.11-10.5-1.55-15.65.53Z"></path> <path class="cls-2" d="M191,0c-4.38,5.31-12.82,8.13-19.12,5.8-4-1.49-7.74-3.84-11.6-5.8h7a61,61,0,0,0,6.48,2.45A15.55,15.55,0,0,0,186.93,0Z"></path> <path class="cls-2" d="M77.73,0c-4.64,6.18-9.88,8.12-17.13,5.64C56.3,4.17,52.27,1.91,48.12,0H57a81.41,81.41,0,0,0,8.84,2.69A9.89,9.89,0,0,0,75.14,0Z"></path> <path class="cls-2" d="M0,161.39c6.12-1.69,12.12-.85,17.94,1.18s11.69,4.47,17.53,6.73l-.18.82c-2.25-.28-4.68-.11-6.72-.93-6.33-2.53-12.4-5.82-19.24-6.76-3.05-.42-6.22,0-9.34.07Z"></path> <path class="cls-2" d="M0,163.61c8.36-.87,15.57,2.69,22.87,5.86l-.08.59a34.39,34.39,0,0,1-5.82-.75c-3.63-1.09-7.12-2.69-10.77-3.72-2-.55-4.13-.36-6.2-.5Z"></path> <path class="cls-2" d="M0,166.57l11.42,2.54-.15.92c-2.25-.17-4.5-.3-6.74-.54-1.52-.16-3-.47-4.53-.71Z"></path> <path class="cls-2" d="M90.68,169.69c6.82-5.78,13.34-11.47,20.07-16.91a23.68,23.68,0,0,1,6.54-3.34,15.56,15.56,0,0,1,15,1.68,46.07,46.07,0,0,1,6.85,5.6c4.05,4.13,7.87,8.49,12,13-1.66.37-2.76.31-3.95-.86-4.18-4.09-8.35-8.21-12.82-12-3.85-3.23-8.35-5.25-13.61-4.71a21.24,21.24,0,0,0-11.22,4.38c-4.72,3.75-9.22,7.79-13.65,11.87A5.16,5.16,0,0,1,90.68,169.69Z"></path> <path class="cls-2" d="M181.25,169.77c4.05-4.28,8.13-8.39,12-12.7,7.63-8.5,16.72-11.05,27.55-7.19,3.59,1.28,7.23,2.43,10.84,3.64v2.83c-3.36-1.11-6.6-2.24-9.88-3.27a29.59,29.59,0,0,0-12.93-1.58c-5,.68-9,3.33-12.52,6.68-3.35,3.18-6.61,6.48-9.72,9.9A5.1,5.1,0,0,1,181.25,169.77Z"></path> <path class="cls-2" d="M97.51,169.53c4.18-4.08,8.37-8.14,13.65-10.87a19,19,0,0,1,18.74.11c5.26,2.83,9.68,6.74,14.28,11-2.46.13-4.4.35-6.46-1.11a73.23,73.23,0,0,0-11.21-6.73c-6-2.79-12.06-2.22-17.72,1.12-2.74,1.62-5.15,3.78-7.77,5.61a25,25,0,0,1-3.16,1.62Z"></path> <path class="cls-2" d="M189.47,169.67c4.22-4.23,8.19-8.42,13.11-11.59,6-3.83,12.3-3.92,18.85-2.11,2.79.77,5.49,1.83,8.28,2.59,1.8.49,2.42,1.41,1.85,3.21-3.06-.89-6.12-1.8-9.19-2.65-7.28-2-13.91-.55-19.93,3.89a39.84,39.84,0,0,0-5.57,4.56C194.83,169.75,192.55,170.38,189.47,169.67Z"></path> <path class="cls-2" d="M200.59,169.85c6.38-5.05,12.75-8.81,20.8-7.67a58.42,58.42,0,0,1,9.3,2.31c.65.21.93,1.57,1.39,2.4l-.51.32c-2-.45-4-1-6.06-1.35a20.12,20.12,0,0,0-14.13,2.28C208,170.14,204.61,169.9,200.59,169.85Z"></path> <path class="cls-2" d="M131.88,170.38c-4.86-.56-9.71-1.27-14.58-1.63a41.17,41.17,0,0,0-7.32.46c-2.17.23-4.33.64-6.83,1,5.26-7.21,19.34-7.3,28.83-.58Z"></path> <path class="cls-2" d="M206.55,136.87l4-3.69a1.23,1.23,0,0,0,.31,0c2.95-1.64,5.79-3.5,8.87-4.86a16.06,16.06,0,0,1,11.91-.47v4.58c-1.87-.47-3.64-1-5.43-1.36-6.06-1.28-11.42.52-16.42,3.82C208.72,135.58,207.62,136.21,206.55,136.87Z"></path> <path class="cls-2" d="M208.41,62.71l5.92-3.11c.55.1,1.16.42,1.65.28,4.79-1.33,9.37-.44,14,1.06,1.56.51,2.11,1.25,1.62,3-1.06-.41-2.12-.79-3.16-1.21-6.2-2.5-12.4-3-18.64-.13A4.42,4.42,0,0,1,208.41,62.71Z"></path> <path class="cls-2" d="M210.86,133.16a1.23,1.23,0,0,1-.31,0l-.41-.35c6.34-5.59,12.92-10.8,21.46-13.13,0,.72.09,1.19.11,1.67s0,1,0,1.61c-7.78.16-13.78,4.19-19.55,8.7A10.56,10.56,0,0,0,210.86,133.16Z"></path> <path class="cls-2" d="M215.75,59.05l0,0a27.14,27.14,0,0,1,15.85-1.72v1.9a24.31,24.31,0,0,0-15.13-.09C216.25,59.25,216,59.1,215.75,59.05Z"></path> </g> </g> </g> </g> </svg> 